<svg width="45" height="45" viewBox="0 0 45 45" fill="none" xmlns="http://www.w3.org/2000/svg">
<path fill-rule="evenodd" clip-rule="evenodd" d="M5.625 7.03125C5.25204 7.03125 4.89435 7.17941 4.63063 7.44313C4.36691 7.70685 4.21875 8.06454 4.21875 8.4375V11.25C4.21875 11.623 4.36691 11.9806 4.63063 12.2444C4.89435 12.5081 5.25204 12.6562 5.625 12.6562H8.4375C8.81046 12.6562 9.16815 12.5081 9.43187 12.2444C9.69559 11.9806 9.84375 11.623 9.84375 11.25V8.4375C9.84375 8.06454 9.69559 7.70685 9.43187 7.44313C9.16815 7.17941 8.81046 7.03125 8.4375 7.03125H5.625ZM8.4375 8.4375H5.625V11.25H8.4375V8.4375Z" fill="#F8CE71"/>
<path d="M14.0625 9.84375C14.0625 9.47079 14.2107 9.1131 14.4744 8.84938C14.7381 8.58566 15.0958 8.4375 15.4688 8.4375H40.7812C41.1542 8.4375 41.5119 8.58566 41.7756 8.84938C42.0393 9.1131 42.1875 9.47079 42.1875 9.84375C42.1875 10.2167 42.0393 10.5744 41.7756 10.8381C41.5119 11.1018 41.1542 11.25 40.7812 11.25H15.4688C15.0958 11.25 14.7381 11.1018 14.4744 10.8381C14.2107 10.5744 14.0625 10.2167 14.0625 9.84375ZM15.4688 19.6875C15.0958 19.6875 14.7381 19.8357 14.4744 20.0994C14.2107 20.3631 14.0625 20.7208 14.0625 21.0938C14.0625 21.4667 14.2107 21.8244 14.4744 22.0881C14.7381 22.3518 15.0958 22.5 15.4688 22.5H40.7812C41.1542 22.5 41.5119 22.3518 41.7756 22.0881C42.0393 21.8244 42.1875 21.4667 42.1875 21.0938C42.1875 20.7208 42.0393 20.3631 41.7756 20.0994C41.5119 19.8357 41.1542 19.6875 40.7812 19.6875H15.4688ZM15.4688 30.9375C15.0958 30.9375 14.7381 31.0857 14.4744 31.3494C14.2107 31.6131 14.0625 31.9708 14.0625 32.3438C14.0625 32.7167 14.2107 33.0744 14.4744 33.3381C14.7381 33.6018 15.0958 33.75 15.4688 33.75H40.7812C41.1542 33.75 41.5119 33.6018 41.7756 33.3381C42.0393 33.0744 42.1875 32.7167 42.1875 32.3438C42.1875 31.9708 42.0393 31.6131 41.7756 31.3494C41.5119 31.0857 41.1542 30.9375 40.7812 30.9375H15.4688Z" fill="#F8CE71"/>
<path fill-rule="evenodd" clip-rule="evenodd" d="M4.21875 19.6875C4.21875 19.3145 4.36691 18.9569 4.63063 18.6931C4.89435 18.4294 5.25204 18.2812 5.625 18.2812H8.4375C8.81046 18.2812 9.16815 18.4294 9.43187 18.6931C9.69559 18.9569 9.84375 19.3145 9.84375 19.6875V22.5C9.84375 22.873 9.69559 23.2306 9.43187 23.4944C9.16815 23.7581 8.81046 23.9062 8.4375 23.9062H5.625C5.25204 23.9062 4.89435 23.7581 4.63063 23.4944C4.36691 23.2306 4.21875 22.873 4.21875 22.5V19.6875ZM5.625 19.6875H8.4375V22.5H5.625V19.6875ZM5.625 29.5312C5.25204 29.5312 4.89435 29.6794 4.63063 29.9431C4.36691 30.2069 4.21875 30.5645 4.21875 30.9375V33.75C4.21875 34.123 4.36691 34.4806 4.63063 34.7444C4.89435 35.0081 5.25204 35.1562 5.625 35.1562H8.4375C8.81046 35.1562 9.16815 35.0081 9.43187 34.7444C9.69559 34.4806 9.84375 34.123 9.84375 33.75V30.9375C9.84375 30.5645 9.69559 30.2069 9.43187 29.9431C9.16815 29.6794 8.81046 29.5312 8.4375 29.5312H5.625ZM8.4375 30.9375H5.625V33.75H8.4375V30.9375Z" fill="#F8CE71"/>
</svg>
