<svg width="28" height="28" viewBox="0 0 28 28" fill="none" xmlns="http://www.w3.org/2000/svg">
<g clip-path="url(#clip0_2_18)">
<path d="M15.3275 0.0620092C13.2683 -0.13307 11.1914 0.129882 9.24579 0.832013C7.30015 1.53414 5.53397 2.65806 4.07387 4.12318C2.11764 6.09219 0.790049 8.59768 0.25938 11.3221C-0.27129 14.0464 0.0188537 16.867 1.09303 19.4263C2.17093 21.9841 3.98395 24.1642 6.30228 25.6904C8.62061 27.2165 11.3399 28.02 14.1154 27.999C14.4682 28.003 14.8183 27.9365 15.1452 27.8035C15.472 27.6706 15.7691 27.4738 16.019 27.2247C16.2689 26.9755 16.4666 26.6791 16.6005 26.3526C16.7345 26.0262 16.802 25.6763 16.7991 25.3234C16.7963 24.9706 16.7231 24.6218 16.5838 24.2976C16.4446 23.9734 16.2421 23.6802 15.9882 23.4351C15.7342 23.1901 15.434 22.9981 15.105 22.8705C14.7761 22.7429 14.4249 22.6822 14.0722 22.6918C12.3479 22.7086 10.6577 22.2113 9.2173 21.2633C7.77688 20.3154 6.65153 18.9598 5.98487 17.3695C5.31446 15.7809 5.13254 14.0285 5.4623 12.3361C5.79207 10.6436 6.61858 9.08774 7.83637 7.86701C8.88937 6.80509 10.199 6.03337 11.6381 5.62673C13.0773 5.22008 14.5971 5.19232 16.0501 5.54613C17.5031 5.89994 18.84 6.6233 19.9311 7.64605C21.0222 8.6688 21.8304 9.9562 22.2774 11.3833H14.0582C13.3543 11.3833 12.6792 11.663 12.1814 12.1607C11.6837 12.6585 11.404 13.3336 11.404 14.0375C11.404 14.7414 11.6837 15.4165 12.1814 15.9143C12.6792 16.412 13.3543 16.6917 14.0582 16.6917H25.3445C26.047 16.692 26.721 16.4138 27.2188 15.918C27.7165 15.4222 27.9974 14.7494 27.9999 14.0468C28.0073 11.2712 27.1904 8.55584 25.6528 6.24497C24.1152 3.93411 21.9261 2.1318 19.363 1.06651C18.0755 0.532408 16.7153 0.19421 15.3275 0.0631759V0.0620092Z" fill="url(#paint0_linear_2_18)"/>
</g>
<defs>
<linearGradient id="paint0_linear_2_18" x1="27.9999" y1="13.9995" x2="6.57965" y2="25.8705" gradientUnits="userSpaceOnUse">
<stop stop-color="#E5008A"/>
<stop offset="1" stop-color="#FCB721"/>
</linearGradient>
<clipPath id="clip0_2_18">
<rect width="28" height="28" fill="white"/>
</clipPath>
</defs>
</svg>
