<svg width="343" height="216" viewBox="0 0 343 216" fill="none" xmlns="http://www.w3.org/2000/svg">
<g filter="url(#filter0_d_112_2235)">
<rect x="4" width="335" height="208" rx="15" fill="white"/>
<path d="M91.65 193H88.15L80.225 181.025V193H76.725V175.525H80.225L88.15 187.525V175.525H91.65V193ZM107.984 185.775C107.984 186.275 107.95 186.725 107.884 187.125H97.7588C97.8421 188.125 98.1921 188.908 98.8088 189.475C99.4255 190.042 100.184 190.325 101.084 190.325C102.384 190.325 103.309 189.767 103.859 188.65H107.634C107.234 189.983 106.467 191.083 105.334 191.95C104.2 192.8 102.809 193.225 101.159 193.225C99.8255 193.225 98.6255 192.933 97.5588 192.35C96.5088 191.75 95.6838 190.908 95.0838 189.825C94.5005 188.742 94.2088 187.492 94.2088 186.075C94.2088 184.642 94.5005 183.383 95.0838 182.3C95.6671 181.217 96.4838 180.383 97.5338 179.8C98.5838 179.217 99.7921 178.925 101.159 178.925C102.475 178.925 103.65 179.208 104.684 179.775C105.734 180.342 106.542 181.15 107.109 182.2C107.692 183.233 107.984 184.425 107.984 185.775ZM104.359 184.775C104.342 183.875 104.017 183.158 103.384 182.625C102.75 182.075 101.975 181.8 101.059 181.8C100.192 181.8 99.4588 182.067 98.8588 182.6C98.2755 183.117 97.9171 183.842 97.7838 184.775H104.359ZM129.738 179.15L125.688 193H121.913L119.388 183.325L116.863 193H113.063L108.988 179.15H112.538L114.988 189.7L117.638 179.15H121.338L123.938 189.675L126.388 179.15H129.738ZM136.739 184.25C136.739 182.533 137.123 181 137.889 179.65C138.673 178.283 139.731 177.225 141.064 176.475C142.414 175.708 143.923 175.325 145.589 175.325C147.539 175.325 149.248 175.825 150.714 176.825C152.181 177.825 153.206 179.208 153.789 180.975H149.764C149.364 180.142 148.798 179.517 148.064 179.1C147.348 178.683 146.514 178.475 145.564 178.475C144.548 178.475 143.639 178.717 142.839 179.2C142.056 179.667 141.439 180.333 140.989 181.2C140.556 182.067 140.339 183.083 140.339 184.25C140.339 185.4 140.556 186.417 140.989 187.3C141.439 188.167 142.056 188.842 142.839 189.325C143.639 189.792 144.548 190.025 145.564 190.025C146.514 190.025 147.348 189.817 148.064 189.4C148.798 188.967 149.364 188.333 149.764 187.5H153.789C153.206 189.283 152.181 190.675 150.714 191.675C149.264 192.658 147.556 193.15 145.589 193.15C143.923 193.15 142.414 192.775 141.064 192.025C139.731 191.258 138.673 190.2 137.889 188.85C137.123 187.5 136.739 185.967 136.739 184.25ZM164.579 178.95C165.629 178.95 166.562 179.183 167.379 179.65C168.195 180.1 168.829 180.775 169.279 181.675C169.745 182.558 169.979 183.625 169.979 184.875V193H166.479V185.35C166.479 184.25 166.204 183.408 165.654 182.825C165.104 182.225 164.354 181.925 163.404 181.925C162.437 181.925 161.67 182.225 161.104 182.825C160.554 183.408 160.279 184.25 160.279 185.35V193H156.779V174.5H160.279V180.875C160.729 180.275 161.329 179.808 162.079 179.475C162.829 179.125 163.662 178.95 164.579 178.95ZM186.182 185.775C186.182 186.275 186.149 186.725 186.082 187.125H175.957C176.04 188.125 176.39 188.908 177.007 189.475C177.624 190.042 178.382 190.325 179.282 190.325C180.582 190.325 181.507 189.767 182.057 188.65H185.832C185.432 189.983 184.665 191.083 183.532 191.95C182.399 192.8 181.007 193.225 179.357 193.225C178.024 193.225 176.824 192.933 175.757 192.35C174.707 191.75 173.882 190.908 173.282 189.825C172.699 188.742 172.407 187.492 172.407 186.075C172.407 184.642 172.699 183.383 173.282 182.3C173.865 181.217 174.682 180.383 175.732 179.8C176.782 179.217 177.99 178.925 179.357 178.925C180.674 178.925 181.849 179.208 182.882 179.775C183.932 180.342 184.74 181.15 185.307 182.2C185.89 183.233 186.182 184.425 186.182 185.775ZM182.557 184.775C182.54 183.875 182.215 183.158 181.582 182.625C180.949 182.075 180.174 181.8 179.257 181.8C178.39 181.8 177.657 182.067 177.057 182.6C176.474 183.117 176.115 183.842 175.982 184.775H182.557ZM187.837 186.075C187.837 184.642 188.128 183.392 188.712 182.325C189.295 181.242 190.103 180.408 191.137 179.825C192.17 179.225 193.353 178.925 194.687 178.925C196.403 178.925 197.82 179.358 198.937 180.225C200.07 181.075 200.828 182.275 201.212 183.825H197.437C197.237 183.225 196.895 182.758 196.412 182.425C195.945 182.075 195.362 181.9 194.662 181.9C193.662 181.9 192.87 182.267 192.287 183C191.703 183.717 191.412 184.742 191.412 186.075C191.412 187.392 191.703 188.417 192.287 189.15C192.87 189.867 193.662 190.225 194.662 190.225C196.078 190.225 197.003 189.592 197.437 188.325H201.212C200.828 189.825 200.07 191.017 198.937 191.9C197.803 192.783 196.387 193.225 194.687 193.225C193.353 193.225 192.17 192.933 191.137 192.35C190.103 191.75 189.295 190.917 188.712 189.85C188.128 188.767 187.837 187.508 187.837 186.075ZM211.976 193L207.276 187.1V193H203.776V174.5H207.276V185.025L211.926 179.15H216.476L210.376 186.1L216.526 193H211.976ZM229.025 182.6V185.55H218.425V182.6H229.025ZM234.726 177.5C234.109 177.5 233.592 177.308 233.176 176.925C232.776 176.525 232.576 176.033 232.576 175.45C232.576 174.867 232.776 174.383 233.176 174C233.592 173.6 234.109 173.4 234.726 173.4C235.342 173.4 235.851 173.6 236.251 174C236.667 174.383 236.876 174.867 236.876 175.45C236.876 176.033 236.667 176.525 236.251 176.925C235.851 177.308 235.342 177.5 234.726 177.5ZM236.451 179.15V193H232.951V179.15H236.451ZM247.584 178.95C249.234 178.95 250.567 179.475 251.584 180.525C252.6 181.558 253.109 183.008 253.109 184.875V193H249.609V185.35C249.609 184.25 249.334 183.408 248.784 182.825C248.234 182.225 247.484 181.925 246.534 181.925C245.567 181.925 244.8 182.225 244.234 182.825C243.684 183.408 243.409 184.25 243.409 185.35V193H239.909V179.15H243.409V180.875C243.875 180.275 244.467 179.808 245.184 179.475C245.917 179.125 246.717 178.95 247.584 178.95Z" fill="black"/>
<g opacity="0.7">
<path d="M125.839 77.2386C116.068 77.2833 108.115 77.4265 108.115 77.4265C108.115 77.4265 117.568 64.9998 125.803 69.6038C134.038 74.2078 143.498 77.2647 143.498 77.2647C143.498 77.2647 135.609 77.1939 125.839 77.2386Z" fill="#FCE5B3"/>
<path d="M235.173 81.0452C236.283 81.0452 237.183 80.1452 237.183 79.0348C237.183 77.9245 236.283 77.0244 235.173 77.0244C234.063 77.0244 233.162 77.9245 233.162 79.0348C233.162 80.1452 234.063 81.0452 235.173 81.0452Z" fill="#FF6584"/>
<path d="M220.292 110.926L235.566 93.3865L236.037 93.797L220.763 111.336L220.292 110.926Z" fill="#E6028A"/>
<path d="M235.977 96.7265C237.754 96.7265 239.194 95.2864 239.194 93.5099C239.194 91.7334 237.754 90.2932 235.977 90.2932C234.201 90.2932 232.76 91.7334 232.76 93.5099C232.76 95.2864 234.201 96.7265 235.977 96.7265Z" fill="#E6028A"/>
<path d="M226.442 104.366C226.442 104.366 232.618 96.4963 224.719 91.0974Z" fill="#E6028A"/>
<path d="M124.028 118.2C135.346 139.185 159.367 148.193 159.367 148.193C159.367 148.193 165.038 123.178 153.72 102.193C142.402 81.2079 118.381 72.1995 118.381 72.1995C118.381 72.1995 112.71 97.2146 124.028 118.2Z" fill="#E6028A"/>
<path d="M131.685 111.387C152.115 123.713 159.983 148.197 159.983 148.197C159.983 148.197 134.728 152.695 114.298 140.369C93.8682 128.042 86 103.559 86 103.559C86 103.559 111.255 99.0601 131.685 111.387Z" fill="#111B47"/>
<path d="M212.734 111.495C192.193 123.653 184.108 148.093 184.108 148.093C184.108 148.093 209.327 152.82 229.868 140.662C250.409 128.504 258.494 104.065 258.494 104.065C258.494 104.065 233.275 99.3371 212.734 111.495Z" fill="#E6028A"/>
<path d="M220.191 118.93C208.689 139.804 184.594 148.595 184.594 148.595C184.594 148.595 179.145 123.543 190.647 102.669C202.148 81.7951 226.244 73.0037 226.244 73.0037C226.244 73.0037 231.692 98.0558 220.191 118.93Z" fill="#111B47"/>
<path d="M178.431 61.7614C176.013 59.5729 175.674 55.8953 177.652 53.3015C177.526 53.42 177.403 53.543 177.284 53.6737C174.961 56.2445 175.161 60.2128 177.73 62.5372C180.3 64.8615 184.266 64.6618 186.59 62.091C186.708 61.9603 186.818 61.8251 186.923 61.6875C184.542 63.917 180.851 63.9491 178.431 61.7614V61.7614Z" fill="#2372CF"/>
<path d="M172.649 66.1683C179.866 66.1683 185.717 60.3176 185.717 53.1005C185.717 45.8834 179.866 40.0328 172.649 40.0328C165.432 40.0328 159.581 45.8834 159.581 53.1005C159.581 60.3176 165.432 66.1683 172.649 66.1683Z" fill="#2372CF"/>
<path d="M168.925 69.7994L169.317 68.792L162.185 74.7589L153.565 79.5634C153.565 79.5634 149.177 62.8252 148.863 62.5152C148.55 62.2053 142.907 50.4266 140.4 56.0059C137.892 61.5853 145.258 64.84 145.258 64.84C145.258 64.84 145.494 85.2202 153.017 85.0653C160.54 84.9103 169.865 78.1685 170.022 77.5486C170.179 76.9287 168.925 69.7994 168.925 69.7994Z" fill="#FFB8B8"/>
<path d="M171.041 66.5703C175.371 66.5703 178.881 63.0599 178.881 58.7297C178.881 54.3994 175.371 50.889 171.041 50.889C166.71 50.889 163.2 54.3994 163.2 58.7297C163.2 63.0599 166.71 66.5703 171.041 66.5703Z" fill="#FFB8B8"/>
<path d="M172.399 64.4593C172.399 64.4593 174.435 67.1003 173.809 67.411C173.182 67.7217 169.58 67.877 167.387 70.518C165.195 73.1589 170.05 79.839 170.05 79.839L188.531 67.5663L181.013 65.0807C181.013 65.0807 175.845 62.2844 176.002 59.3328L172.399 64.4593Z" fill="#FFB8B8"/>
<path d="M197.377 148.997H176.617C175.442 140.418 174.898 132.556 174.898 132.556C174.898 132.556 174.594 140.464 173.787 148.997H147.117C150.897 123.73 168.82 96.3307 168.82 96.3307C168.82 96.3307 168.976 92.5983 169.444 91.9758C169.912 91.3555 166.795 91.1999 165.392 86.5359C164.536 83.6887 165.305 81.8256 166.036 80.8079C166.287 80.4411 166.596 80.1173 166.951 79.849C166.951 79.849 167.263 76.5855 166.951 76.1186C166.911 76.0577 167.219 75.8432 167.788 75.5172C168.262 75.2439 168.917 74.8927 169.701 74.489C174.192 72.1654 182.885 68.0544 185.862 66.654C186.516 66.3448 186.895 66.1682 186.895 66.1682L192.193 68.0334C196.399 69.4318 196.399 78.295 196.399 78.295L196.161 78.6567L189.803 88.2665L186.115 93.8431C187.051 94.4634 185.182 98.3515 185.182 98.3515C185.182 98.3515 187.845 102.17 190.012 107.999C191.237 111.243 192.072 114.621 192.501 118.061C192.774 120.291 192.827 122.542 192.661 124.782C192.083 132.272 194.65 141.375 197.377 148.997Z" fill="#2372CF"/>
<path d="M192.13 68.7552C191.785 68.5588 191.371 68.5265 191 68.6669C190.629 68.8074 190.337 69.1063 190.204 69.4839C189.74 70.7739 189.27 73.463 189.438 79.054C189.746 89.3364 189.9 96.3472 189.9 96.3472V111.927C189.9 111.927 183.124 126.883 186.82 126.883C190.516 126.883 193.134 115.042 193.134 115.042C193.134 115.042 196.522 97.1261 195.444 94.0103C195.444 94.0103 198.484 72.4848 192.13 68.7552Z" fill="#FFB8B8"/>
<path d="M170.236 56.5182C173.901 56.5182 176.871 54.448 176.871 51.8942C176.871 49.3405 173.901 47.2703 170.236 47.2703C166.572 47.2703 163.602 49.3405 163.602 51.8942C163.602 54.448 166.572 56.5182 170.236 56.5182Z" fill="#2372CF"/>
<path d="M180.892 48.0744C184.445 48.0744 187.325 45.1941 187.325 41.6411C187.325 38.0881 184.445 35.2078 180.892 35.2078C177.339 35.2078 174.458 38.0881 174.458 41.6411C174.458 45.1941 177.339 48.0744 180.892 48.0744Z" fill="#2372CF"/>
<path d="M185.315 46.2188C181.97 46.2183 179.184 43.7039 178.905 40.4349C178.891 40.6085 178.881 40.7835 178.881 40.9607C178.881 44.4454 181.762 47.2704 185.315 47.2704C188.868 47.2704 191.748 44.4454 191.748 40.9607C191.748 40.7835 191.739 40.6085 191.724 40.4349C191.446 43.704 188.659 46.2183 185.315 46.2188V46.2188Z" fill="#2372CF"/>
<path d="M178.636 57.3298C178.929 57.2599 179.036 56.6604 178.877 55.9908C178.717 55.3213 178.35 54.8352 178.057 54.9052C177.764 54.9751 177.656 55.5746 177.816 56.2442C177.976 56.9137 178.343 57.3998 178.636 57.3298Z" fill="#FFB8B8"/>
<path d="M178.479 57.3224C178.701 57.3224 178.881 57.1423 178.881 56.9203C178.881 56.6982 178.701 56.5182 178.479 56.5182C178.257 56.5182 178.077 56.6982 178.077 56.9203C178.077 57.1423 178.257 57.3224 178.479 57.3224Z" fill="#FCE5B3"/>
<path fill-rule="evenodd" clip-rule="evenodd" d="M102.083 81.2464C102.083 82.6898 103.253 83.8599 104.697 83.8599C106.14 83.8583 107.309 82.6891 107.31 81.2464C107.31 79.8029 106.14 78.6328 104.697 78.6328C103.253 78.6328 102.083 79.8029 102.083 81.2464ZM102.519 81.2463C102.519 80.0435 103.494 79.0684 104.697 79.0684C105.899 79.0698 106.874 80.0441 106.875 81.2463C106.875 82.4492 105.9 83.4243 104.697 83.4243C103.494 83.4243 102.519 82.4492 102.519 81.2463Z" fill="#E6028A"/>
<path fill-rule="evenodd" clip-rule="evenodd" d="M208.233 65.364H213.863V59.7349H208.233V65.364ZM213.429 64.9311H208.666V60.1679H213.429V64.9311Z" fill="#E6028A"/>
<path d="M261.341 94.5281C251.57 94.5728 243.617 94.7161 243.617 94.7161C243.617 94.7161 253.07 82.2894 261.305 86.8934C269.54 91.4974 279 94.5542 279 94.5542C279 94.5542 271.111 94.4834 261.341 94.5281Z" fill="#FCE5B3"/>
<path d="M231.184 52.3094C221.413 52.3541 213.46 52.4973 213.46 52.4973C213.46 52.4973 222.914 40.0706 231.149 44.6746C239.384 49.2786 248.844 52.3355 248.844 52.3355C248.844 52.3355 240.955 52.2647 231.184 52.3094Z" fill="#FCE5B3"/>
<path d="M138.817 57.7778L116.251 46.1288C114.71 45.3333 114.103 43.4343 114.896 41.8873L120.212 31.5082C120.368 31.2036 120.642 30.9768 120.969 30.8809L138.755 25.6745C140.232 25.2423 141.787 26.0452 142.296 27.5025L148.14 44.2375C148.435 45.0824 148.371 46.0119 147.963 46.8081L143.042 56.4171C142.661 57.16 142.002 57.7207 141.21 57.9759C140.418 58.2311 139.557 58.1599 138.817 57.7778V57.7778Z" fill="#FCE5B3"/>
<path opacity="0.1" d="M139.617 53.9352L116.882 44.1883C116.15 43.81 116.837 44.3914 117.213 43.6558L120.071 31.9911L147.921 46.3726L140.88 55.1152C140.503 55.8509 140.349 54.3135 139.617 53.9352Z" fill="black"/>
<path d="M124.995 49.364C120.974 47.2966 119.391 42.3613 121.458 38.3407L124.637 32.1584C126.705 28.1378 131.64 26.5545 135.661 28.6219L141.843 31.8009C145.864 33.8684 147.447 38.8037 145.38 42.8242L142.201 49.0066C140.133 53.0271 135.198 54.6105 131.177 52.5431L124.995 49.364Z" fill="#111B47"/>
<path opacity="0.1" d="M144.302 44.6912L138.455 56.1162L117.765 45.4264L123.612 34.0016L131.386 44.3704L144.302 44.6912V44.6912Z" fill="black"/>
<path d="M131.134 45.1218L121.097 31.8311C120.971 31.664 120.767 31.5734 120.558 31.5912C120.349 31.609 120.164 31.7328 120.068 31.9189L114.356 42.9985C114.126 43.4462 114.083 43.967 114.237 44.4463C114.391 44.9256 114.73 45.3242 115.179 45.5544L140.064 58.3185C140.513 58.5487 141.035 58.5916 141.516 58.4378C141.996 58.2841 142.396 57.9462 142.627 57.4985L148.241 46.6087C148.358 46.3816 148.349 46.1105 148.219 45.8909C148.088 45.6714 147.854 45.5343 147.598 45.528L131.134 45.1218Z" fill="#FCE5B3"/>
<path d="M129.189 27.7018L134.99 30.6846L134.568 31.5049L128.767 28.5221L129.189 27.7018Z" fill="#FCE5B3"/>
<path d="M127.183 30.449L144.41 39.3071L144.169 39.7758L126.942 30.9177L127.183 30.449Z" fill="#FCE5B3"/>
<path d="M126.37 32.031L143.596 40.8891L143.355 41.3578L126.129 32.4998L126.37 32.031Z" fill="#FCE5B3"/>
<path d="M125.556 33.613L142.783 42.4711L142.542 42.9399L125.315 34.0818L125.556 33.613Z" fill="#FCE5B3"/>
<path d="M131.465 26.8773C132.148 25.5481 131.627 23.9175 130.3 23.2353C128.973 22.553 127.344 23.0775 126.66 24.4066C125.977 25.7358 126.498 27.3664 127.825 28.0487C129.152 28.7309 130.781 28.2065 131.465 26.8773Z" fill="white"/>
<path fill-rule="evenodd" clip-rule="evenodd" d="M126.163 24.0872C126.976 22.5076 128.916 21.8856 130.496 22.6978C132.072 23.5137 132.693 25.4485 131.886 27.0285C131.073 28.6081 129.134 29.2301 127.553 28.4179C125.973 27.6057 125.35 25.6667 126.163 24.0872ZM126.94 24.5614L127.653 26.7808L131.653 25.5004L131.453 24.8779L128.076 25.9607L127.563 24.3616L126.94 24.5614Z" fill="#57B894"/>
</g>
<ellipse cx="37.5" cy="33" rx="23.5" ry="22" fill="#D9D9D9"/>
<ellipse cx="60.5" cy="33" rx="23.5" ry="22" fill="#C7C6C6"/>
<path d="M61 31C59.075 31 57.4271 30.3146 56.0562 28.9437C54.6854 27.5729 54 25.925 54 24C54 22.075 54.6854 20.4271 56.0562 19.0563C57.4271 17.6854 59.075 17 61 17C62.925 17 64.5729 17.6854 65.9437 19.0563C67.3146 20.4271 68 22.075 68 24C68 25.925 67.3146 27.5729 65.9437 28.9437C64.5729 30.3146 62.925 31 61 31ZM47 45V40.1C47 39.1083 47.2555 38.1966 47.7665 37.3647C48.2775 36.5329 48.9553 35.8988 49.8 35.4625C51.6083 34.5583 53.4458 33.8799 55.3125 33.4272C57.1792 32.9746 59.075 32.7488 61 32.75C62.925 32.75 64.8208 32.9763 66.6875 33.429C68.5542 33.8817 70.3917 34.5595 72.2 35.4625C73.0458 35.9 73.7242 36.5347 74.2352 37.3665C74.7462 38.1983 75.0012 39.1095 75 40.1V45H47Z" fill="#A4A4A4"/>
</g>
<defs>
<filter id="filter0_d_112_2235" x="0" y="0" width="343" height="216" filterUnits="userSpaceOnUse" color-interpolation-filters="sRGB">
<feFlood flood-opacity="0" result="BackgroundImageFix"/>
<feColorMatrix in="SourceAlpha" type="matrix" values="0 0 0 0 0 0 0 0 0 0 0 0 0 0 0 0 0 0 127 0" result="hardAlpha"/>
<feOffset dy="4"/>
<feGaussianBlur stdDeviation="2"/>
<feComposite in2="hardAlpha" operator="out"/>
<feColorMatrix type="matrix" values="0 0 0 0 0 0 0 0 0 0 0 0 0 0 0 0 0 0 0.25 0"/>
<feBlend mode="normal" in2="BackgroundImageFix" result="effect1_dropShadow_112_2235"/>
<feBlend mode="normal" in="SourceGraphic" in2="effect1_dropShadow_112_2235" result="shape"/>
</filter>
</defs>
</svg>
