<svg width="316" height="208" viewBox="0 0 316 208" fill="none" xmlns="http://www.w3.org/2000/svg">
<rect width="291" height="208" rx="15" fill="white"/>
<g opacity="0.7">
<path d="M141.926 145.649C174.274 145.649 200.497 119.426 200.497 87.0786C200.497 54.7308 174.274 28.5078 141.926 28.5078C109.578 28.5078 83.355 54.7308 83.355 87.0786C83.355 119.426 109.578 145.649 141.926 145.649Z" fill="#F2F2F2"/>
<path d="M151.325 96.0096C138.428 115.89 141.962 141.175 141.962 141.175C141.962 141.175 166.405 134.228 179.302 114.348C192.199 94.4673 188.665 69.182 188.665 69.182C188.665 69.182 164.222 76.1292 151.325 96.0096Z" fill="#2372CF"/>
<path d="M141.922 140.769C141.922 140.769 141.606 140.718 141.025 140.601C140.562 140.508 139.923 140.374 139.144 140.19C132.176 138.555 113.651 133.028 101.54 118.496C86.3812 100.299 87.0195 74.8765 87.0195 74.8765C87.0195 74.8765 110.197 78.6248 125.47 94.9658C126.132 95.668 126.776 96.3958 127.402 97.1492C140.592 112.982 141.821 134.285 141.919 139.551C141.932 140.341 141.922 140.769 141.922 140.769Z" fill="#222F65"/>
<path fill-rule="evenodd" clip-rule="evenodd" d="M132.527 96.0096C145.424 115.89 141.89 141.175 141.89 141.175C141.89 141.175 117.446 134.228 104.55 114.348C91.653 94.4673 95.1867 69.182 95.1867 69.182C95.1867 69.182 119.63 76.1292 132.527 96.0096Z" stroke="#FCE5B3" stroke-width="2"/>
<path opacity="0.1" d="M141.926 139.978C141.584 140.391 141.283 140.743 141.035 141.032C140.486 141.66 140.174 141.989 140.174 141.989C140.174 141.989 139.796 141.512 139.159 140.619C135.666 135.738 124.43 118.381 125.297 98.3323C125.344 97.2815 125.421 96.2419 125.528 95.2135C126.188 95.9185 126.83 96.6492 127.454 97.4057C140.603 113.302 141.829 134.69 141.926 139.978Z" fill="black"/>
<path d="M161.402 99.8019C160.374 123.501 142.708 141.989 142.708 141.989C142.708 141.989 126.709 122.052 127.737 98.3531C128.766 74.6539 146.432 56.1663 146.432 56.1663C146.432 56.1663 162.43 76.1026 161.402 99.8019Z" fill="#222F65"/>
<path d="M142.739 141.175L146.4 56.9797" stroke="#FCE5B3" stroke-width="2"/>
<path d="M164.5 148.903C214.482 148.903 255 146.354 255 143.209C255 140.064 214.482 137.515 164.5 137.515C114.518 137.515 74 140.064 74 143.209C74 146.354 114.518 148.903 164.5 148.903Z" fill="#2372CF"/>
<path d="M89.0495 141.175V118.398V141.175Z" fill="#2372CF"/>
<path d="M89.0495 141.175V118.398" stroke="#FCE5B3" stroke-width="2"/>
<path d="M89.0495 121.652C90.8466 121.652 92.3034 120.195 92.3034 118.398C92.3034 116.601 90.8466 115.144 89.0495 115.144C87.2524 115.144 85.7955 116.601 85.7955 118.398C85.7955 120.195 87.2524 121.652 89.0495 121.652Z" fill="#2372CF"/>
<path d="M89.0495 132.634C89.0495 132.634 88.5954 122.615 79.2877 123.78L89.0495 132.634Z" fill="#2372CF"/>
<path d="M166.737 104.162V40.7101V104.162Z" fill="#2372CF"/>
<path d="M166.737 104.162V40.7101" stroke="#FCE5B3" stroke-width="2"/>
<path d="M166.737 45.591C169.208 45.591 171.211 43.5879 171.211 41.1169C171.211 38.6458 169.208 36.6427 166.737 36.6427C164.266 36.6427 162.263 38.6458 162.263 41.1169C162.263 43.5879 164.266 45.591 166.737 45.591Z" fill="#2372CF"/>
<path d="M166.737 59.0135C166.737 59.0135 166.113 45.3517 153.315 46.9397L166.737 59.0135Z" fill="#2372CF"/>
<path d="M219.73 69.182L215.916 76.3548C215.916 76.3548 188.338 81.6246 191.859 89.8221C195.379 98.0196 199.34 110.023 201.394 109.73C203.447 109.438 214.742 102.997 215.182 101.094C215.622 99.1907 205.061 90.2613 205.061 90.2613L222.517 86.8945C222.517 86.8945 225.01 98.6052 221.783 106.656C218.556 114.707 216.649 136.519 218.849 136.811C221.05 137.104 226.624 138.861 229.118 137.251C231.611 135.64 232.785 100.362 232.785 100.362C232.785 100.362 238.066 77.2331 234.839 74.5982C231.611 71.9633 219.73 69.182 219.73 69.182Z" fill="#E6028A"/>
<path d="M225.691 133.552C225.691 133.552 222.283 131.752 221.566 133.192C221.566 133.192 222.104 137.51 219.951 138.05C217.799 138.59 216.902 142.369 219.951 142.729C223.001 143.089 224.974 142.009 226.05 142.009C227.126 142.009 226.05 138.23 226.05 138.23L225.691 133.552Z" fill="#E6028A"/>
<path d="M209.431 104.095C209.431 104.095 205.717 103.053 205.318 104.617C205.318 104.617 206.754 108.739 204.761 109.726C202.769 110.712 202.686 114.609 205.746 114.314C208.805 114.02 210.508 112.542 211.561 112.314C212.614 112.085 210.766 108.607 210.766 108.607L209.431 104.095Z" fill="#E6028A"/>
<path d="M227.909 43.9065C227.909 43.9065 228.054 49.369 227.04 49.812C226.026 50.2549 232.69 52.9123 232.69 52.9123L233.849 50.8454C233.849 50.8454 232.545 43.4636 232.835 42.8731C233.125 42.2825 227.909 43.9065 227.909 43.9065Z" fill="#9F616A"/>
<path d="M230.189 45.1842C235.131 45.1842 239.137 41.1779 239.137 36.2359C239.137 31.2939 235.131 27.2876 230.189 27.2876C225.247 27.2876 221.24 31.2939 221.24 36.2359C221.24 41.1779 225.247 45.1842 230.189 45.1842Z" fill="#E6028A"/>
<path d="M231.002 31.355C233.024 31.355 234.663 29.7161 234.663 27.6944C234.663 25.6726 233.024 24.0337 231.002 24.0337C228.981 24.0337 227.342 25.6726 227.342 27.6944C227.342 29.7161 228.981 31.355 231.002 31.355Z" fill="#E6028A"/>
<path d="M226.075 25.6607C226.075 23.7866 227.5 22.2152 229.375 22.0198C229.248 22.0066 229.12 22 228.992 22C226.957 22 225.308 23.6389 225.308 25.6607C225.308 27.6824 226.957 29.3213 228.992 29.3213C229.12 29.3213 229.248 29.3147 229.375 29.3016C227.5 29.1062 226.075 27.5348 226.075 25.6607Z" fill="#E6028A"/>
<path d="M229.782 46.8113C233.152 46.8113 235.883 44.0797 235.883 40.7101C235.883 37.3406 233.152 34.609 229.782 34.609C226.412 34.609 223.681 37.3406 223.681 40.7101C223.681 44.0797 226.412 46.8113 229.782 46.8113Z" fill="#9F616A"/>
<path d="M234.358 48.7674C234.358 48.7674 229.089 50.3701 226.455 48.7674C223.82 47.1647 217.527 51.8271 216.502 53.8669C215.478 55.9067 220.308 57.9465 220.308 57.9465C220.308 57.9465 218.928 61.8856 219.21 63.8474C219.503 65.8872 218.99 70.0396 218.99 70.0396C218.99 70.0396 231.921 78.5201 234.797 74.702C235.236 74.1192 238.895 60.4234 238.895 60.4234L244.018 55.3239C244.018 55.3239 240.798 50.6615 238.895 50.2244C236.993 49.7873 234.358 48.7674 234.358 48.7674Z" fill="#D0CDE1"/>
<path d="M198.844 78.5371C198.844 78.5371 188.979 83.7589 191.01 85.2509C193.041 86.7428 201.31 79.4323 201.31 79.4323L198.844 78.5371Z" fill="#9F616A"/>
<path d="M237.885 74.8515C237.885 74.8515 233.413 71.7128 232.693 73.2822C231.973 74.8515 237.59 78.3854 238.772 77.0026C239.955 75.6198 237.885 74.8515 237.885 74.8515Z" fill="#9F616A"/>
<path d="M241.483 53.3191L244.092 54.9413C244.092 54.9413 252.932 67.3291 249.888 70.1311C246.845 72.9331 239.02 78.5371 239.02 78.5371C239.02 78.5371 236.411 74.7028 237.281 74.5553C238.15 74.4078 245.106 68.5089 245.106 68.5089L239.02 57.0059L241.483 53.3191Z" fill="#D0CDE1"/>
<path d="M218.059 52.9124L216.161 53.6488L211.197 62.633L198.056 78.6868C198.056 78.6868 199.808 81.4852 201.268 80.896C202.728 80.3069 213.679 67.9352 213.679 67.9352L220.834 56.7417L218.059 52.9124Z" fill="#D0CDE1"/>
<path d="M230.392 37.0494C233.874 37.0494 236.697 35.4104 236.697 33.3887C236.697 31.367 233.874 29.728 230.392 29.728C226.91 29.728 224.088 31.367 224.088 33.3887C224.088 35.4104 226.91 37.0494 230.392 37.0494Z" fill="#E6028A"/>
<rect x="188.701" y="112.703" width="28.8787" height="28.8787" fill="#222F65"/>
<path fill-rule="evenodd" clip-rule="evenodd" d="M208.577 132.8C211.601 132.8 213.512 130.228 213.512 126.148C213.512 120.598 209.26 116.771 203.124 116.771C196.741 116.771 192.362 121.077 192.362 127.349C192.362 133.775 196.653 137.915 203.356 137.921C204.517 137.927 205.676 137.801 206.809 137.546C207.269 137.435 207.556 136.978 207.456 136.516C207.356 136.053 206.905 135.756 206.44 135.845C205.451 136.019 204.448 136.104 203.444 136.098C197.93 136.098 194.389 132.717 194.389 127.42C194.389 122.239 197.969 118.577 202.992 118.577C208.071 118.577 211.507 121.644 211.507 126.231C211.507 129.105 210.538 130.955 209.012 130.955C208.131 130.955 207.641 130.421 207.641 129.535V122.415H205.443V123.946H205.223C204.716 122.828 203.565 122.145 202.21 122.145C199.572 122.145 197.765 124.287 197.765 127.365C197.765 130.57 199.561 132.723 202.249 132.723C203.758 132.723 204.881 132.024 205.427 130.746H205.647C205.851 131.974 207.03 132.8 208.577 132.8ZM202.656 130.685C201.097 130.685 200.139 129.452 200.139 127.415C200.139 125.372 201.081 124.171 202.684 124.171C204.298 124.171 205.333 125.41 205.333 127.415C205.333 129.419 204.298 130.685 202.656 130.685Z" fill="white"/>
</g>
<path d="M96.725 193L92.875 186.2H91.225V193H87.725V175.55H94.275C95.625 175.55 96.775 175.792 97.725 176.275C98.675 176.742 99.3833 177.383 99.85 178.2C100.333 179 100.575 179.9 100.575 180.9C100.575 182.05 100.242 183.092 99.575 184.025C98.9083 184.942 97.9167 185.575 96.6 185.925L100.775 193H96.725ZM91.225 183.575H94.15C95.1 183.575 95.8083 183.35 96.275 182.9C96.7417 182.433 96.975 181.792 96.975 180.975C96.975 180.175 96.7417 179.558 96.275 179.125C95.8083 178.675 95.1 178.45 94.15 178.45H91.225V183.575ZM116.616 185.775C116.616 186.275 116.582 186.725 116.516 187.125H106.391C106.474 188.125 106.824 188.908 107.441 189.475C108.057 190.042 108.816 190.325 109.716 190.325C111.016 190.325 111.941 189.767 112.491 188.65H116.266C115.866 189.983 115.099 191.083 113.966 191.95C112.832 192.8 111.441 193.225 109.791 193.225C108.457 193.225 107.257 192.933 106.191 192.35C105.141 191.75 104.316 190.908 103.716 189.825C103.132 188.742 102.841 187.492 102.841 186.075C102.841 184.642 103.132 183.383 103.716 182.3C104.299 181.217 105.116 180.383 106.166 179.8C107.216 179.217 108.424 178.925 109.791 178.925C111.107 178.925 112.282 179.208 113.316 179.775C114.366 180.342 115.174 181.15 115.741 182.2C116.324 183.233 116.616 184.425 116.616 185.775ZM112.991 184.775C112.974 183.875 112.649 183.158 112.016 182.625C111.382 182.075 110.607 181.8 109.691 181.8C108.824 181.8 108.091 182.067 107.491 182.6C106.907 183.117 106.549 183.842 106.416 184.775H112.991ZM124.47 193.225C123.337 193.225 122.32 193.025 121.42 192.625C120.52 192.208 119.804 191.65 119.27 190.95C118.754 190.25 118.47 189.475 118.42 188.625H121.945C122.012 189.158 122.27 189.6 122.72 189.95C123.187 190.3 123.762 190.475 124.445 190.475C125.112 190.475 125.629 190.342 125.995 190.075C126.379 189.808 126.57 189.467 126.57 189.05C126.57 188.6 126.337 188.267 125.87 188.05C125.42 187.817 124.695 187.567 123.695 187.3C122.662 187.05 121.812 186.792 121.145 186.525C120.495 186.258 119.929 185.85 119.445 185.3C118.979 184.75 118.745 184.008 118.745 183.075C118.745 182.308 118.962 181.608 119.395 180.975C119.845 180.342 120.479 179.842 121.295 179.475C122.129 179.108 123.104 178.925 124.22 178.925C125.87 178.925 127.187 179.342 128.17 180.175C129.154 180.992 129.695 182.1 129.795 183.5H126.445C126.395 182.95 126.162 182.517 125.745 182.2C125.345 181.867 124.804 181.7 124.12 181.7C123.487 181.7 122.995 181.817 122.645 182.05C122.312 182.283 122.145 182.608 122.145 183.025C122.145 183.492 122.379 183.85 122.845 184.1C123.312 184.333 124.037 184.575 125.02 184.825C126.02 185.075 126.845 185.333 127.495 185.6C128.145 185.867 128.704 186.283 129.17 186.85C129.654 187.4 129.904 188.133 129.92 189.05C129.92 189.85 129.695 190.567 129.245 191.2C128.812 191.833 128.179 192.333 127.345 192.7C126.529 193.05 125.57 193.225 124.47 193.225ZM138.943 193.225C137.61 193.225 136.41 192.933 135.343 192.35C134.277 191.75 133.435 190.908 132.818 189.825C132.218 188.742 131.918 187.492 131.918 186.075C131.918 184.658 132.227 183.408 132.843 182.325C133.477 181.242 134.335 180.408 135.418 179.825C136.502 179.225 137.71 178.925 139.043 178.925C140.377 178.925 141.585 179.225 142.668 179.825C143.752 180.408 144.602 181.242 145.218 182.325C145.852 183.408 146.168 184.658 146.168 186.075C146.168 187.492 145.843 188.742 145.193 189.825C144.56 190.908 143.693 191.75 142.593 192.35C141.51 192.933 140.293 193.225 138.943 193.225ZM138.943 190.175C139.577 190.175 140.168 190.025 140.718 189.725C141.285 189.408 141.735 188.942 142.068 188.325C142.402 187.708 142.568 186.958 142.568 186.075C142.568 184.758 142.218 183.75 141.518 183.05C140.835 182.333 139.993 181.975 138.993 181.975C137.993 181.975 137.152 182.333 136.468 183.05C135.802 183.75 135.468 184.758 135.468 186.075C135.468 187.392 135.793 188.408 136.443 189.125C137.11 189.825 137.943 190.175 138.943 190.175ZM161.811 179.15V193H158.286V191.25C157.836 191.85 157.244 192.325 156.511 192.675C155.794 193.008 155.011 193.175 154.161 193.175C153.077 193.175 152.119 192.95 151.286 192.5C150.452 192.033 149.794 191.358 149.311 190.475C148.844 189.575 148.611 188.508 148.611 187.275V179.15H152.111V186.775C152.111 187.875 152.386 188.725 152.936 189.325C153.486 189.908 154.236 190.2 155.186 190.2C156.152 190.2 156.911 189.908 157.461 189.325C158.011 188.725 158.286 187.875 158.286 186.775V179.15H161.811ZM168.764 181.3C169.214 180.567 169.797 179.992 170.514 179.575C171.247 179.158 172.081 178.95 173.014 178.95V182.625H172.089C170.989 182.625 170.156 182.883 169.589 183.4C169.039 183.917 168.764 184.817 168.764 186.1V193H165.264V179.15H168.764V181.3ZM174.471 186.075C174.471 184.642 174.763 183.392 175.346 182.325C175.93 181.242 176.738 180.408 177.771 179.825C178.805 179.225 179.988 178.925 181.321 178.925C183.038 178.925 184.455 179.358 185.571 180.225C186.705 181.075 187.463 182.275 187.846 183.825H184.071C183.871 183.225 183.53 182.758 183.046 182.425C182.58 182.075 181.996 181.9 181.296 181.9C180.296 181.9 179.505 182.267 178.921 183C178.338 183.717 178.046 184.742 178.046 186.075C178.046 187.392 178.338 188.417 178.921 189.15C179.505 189.867 180.296 190.225 181.296 190.225C182.713 190.225 183.638 189.592 184.071 188.325H187.846C187.463 189.825 186.705 191.017 185.571 191.9C184.438 192.783 183.021 193.225 181.321 193.225C179.988 193.225 178.805 192.933 177.771 192.35C176.738 191.75 175.93 190.917 175.346 189.85C174.763 188.767 174.471 187.508 174.471 186.075ZM203.286 185.775C203.286 186.275 203.252 186.725 203.186 187.125H193.061C193.144 188.125 193.494 188.908 194.111 189.475C194.727 190.042 195.486 190.325 196.386 190.325C197.686 190.325 198.611 189.767 199.161 188.65H202.936C202.536 189.983 201.769 191.083 200.636 191.95C199.502 192.8 198.111 193.225 196.461 193.225C195.127 193.225 193.927 192.933 192.861 192.35C191.811 191.75 190.986 190.908 190.386 189.825C189.802 188.742 189.511 187.492 189.511 186.075C189.511 184.642 189.802 183.383 190.386 182.3C190.969 181.217 191.786 180.383 192.836 179.8C193.886 179.217 195.094 178.925 196.461 178.925C197.777 178.925 198.952 179.208 199.986 179.775C201.036 180.342 201.844 181.15 202.411 182.2C202.994 183.233 203.286 184.425 203.286 185.775ZM199.661 184.775C199.644 183.875 199.319 183.158 198.686 182.625C198.052 182.075 197.277 181.8 196.361 181.8C195.494 181.8 194.761 182.067 194.161 182.6C193.577 183.117 193.219 183.842 193.086 184.775H199.661ZM211.14 193.225C210.007 193.225 208.99 193.025 208.09 192.625C207.19 192.208 206.474 191.65 205.94 190.95C205.424 190.25 205.14 189.475 205.09 188.625H208.615C208.682 189.158 208.94 189.6 209.39 189.95C209.857 190.3 210.432 190.475 211.115 190.475C211.782 190.475 212.299 190.342 212.665 190.075C213.049 189.808 213.24 189.467 213.24 189.05C213.24 188.6 213.007 188.267 212.54 188.05C212.09 187.817 211.365 187.567 210.365 187.3C209.332 187.05 208.482 186.792 207.815 186.525C207.165 186.258 206.599 185.85 206.115 185.3C205.649 184.75 205.415 184.008 205.415 183.075C205.415 182.308 205.632 181.608 206.065 180.975C206.515 180.342 207.149 179.842 207.965 179.475C208.799 179.108 209.774 178.925 210.89 178.925C212.54 178.925 213.857 179.342 214.84 180.175C215.824 180.992 216.365 182.1 216.465 183.5H213.115C213.065 182.95 212.832 182.517 212.415 182.2C212.015 181.867 211.474 181.7 210.79 181.7C210.157 181.7 209.665 181.817 209.315 182.05C208.982 182.283 208.815 182.608 208.815 183.025C208.815 183.492 209.049 183.85 209.515 184.1C209.982 184.333 210.707 184.575 211.69 184.825C212.69 185.075 213.515 185.333 214.165 185.6C214.815 185.867 215.374 186.283 215.84 186.85C216.324 187.4 216.574 188.133 216.59 189.05C216.59 189.85 216.365 190.567 215.915 191.2C215.482 191.833 214.849 192.333 214.015 192.7C213.199 193.05 212.24 193.225 211.14 193.225Z" fill="black"/>
<ellipse cx="31.5" cy="32" rx="23.5" ry="22" fill="#D9D9D9"/>
<ellipse cx="54.5" cy="32" rx="23.5" ry="22" fill="#C7C6C6"/>
<path d="M55 30C53.075 30 51.4271 29.3146 50.0562 27.9437C48.6854 26.5729 48 24.925 48 23C48 21.075 48.6854 19.4271 50.0562 18.0563C51.4271 16.6854 53.075 16 55 16C56.925 16 58.5729 16.6854 59.9437 18.0563C61.3146 19.4271 62 21.075 62 23C62 24.925 61.3146 26.5729 59.9437 27.9437C58.5729 29.3146 56.925 30 55 30ZM41 44V39.1C41 38.1083 41.2555 37.1966 41.7665 36.3647C42.2775 35.5329 42.9553 34.8988 43.8 34.4625C45.6083 33.5583 47.4458 32.8799 49.3125 32.4272C51.1792 31.9746 53.075 31.7488 55 31.75C56.925 31.75 58.8208 31.9763 60.6875 32.429C62.5542 32.8817 64.3917 33.5595 66.2 34.4625C67.0458 34.9 67.7242 35.5347 68.2352 36.3665C68.7462 37.1983 69.0012 38.1095 69 39.1V44H41Z" fill="#A4A4A4"/>
</svg>
